<mxfile host="Electron" agent="Mozilla/5.0 (Windows NT 10.0; Win64; x64) AppleWebKit/537.36 (KHTML, like Gecko) draw.io/28.0.6 Chrome/138.0.7204.100 Electron/37.2.3 Safari/537.36" version="28.0.6">
  <diagram name="Page-1" id="hVK6pD51X-__EAUD7VU0">
    <mxGraphModel dx="3801" dy="1784" grid="1" gridSize="10" guides="1" tooltips="1" connect="1" arrows="1" fold="1" page="1" pageScale="1" pageWidth="850" pageHeight="1100" math="0" shadow="0">
      <root>
        <mxCell id="0" />
        <mxCell id="1" parent="0" />
        <mxCell id="E_WSCHdWVRtiDe6Vju4G-1" value="&lt;font style=&quot;&quot;&gt;&lt;b style=&quot;font-size: 40px;&quot;&gt;&lt;font style=&quot;&quot;&gt;Integration Model&lt;/font&gt;&lt;/b&gt; &lt;font style=&quot;font-size: 30px;&quot;&gt;(how to tables are related)&lt;/font&gt;&lt;/font&gt;" style="text;html=1;align=center;verticalAlign=middle;whiteSpace=wrap;rounded=0;" parent="1" vertex="1">
          <mxGeometry x="-505" y="120" width="715" height="30" as="geometry" />
        </mxCell>
        <mxCell id="E_WSCHdWVRtiDe6Vju4G-2" value="&lt;font style=&quot;color: rgb(0, 0, 0);&quot;&gt;crm_cust_info&lt;/font&gt;" style="swimlane;fontStyle=0;childLayout=stackLayout;horizontal=1;startSize=30;horizontalStack=0;resizeParent=1;resizeParentMax=0;resizeLast=0;collapsible=1;marginBottom=0;whiteSpace=wrap;html=1;rounded=1;fillColor=#dae8fc;strokeColor=#6c8ebf;fontSize=26;fontColor=#FFFFFF;" parent="1" vertex="1">
          <mxGeometry x="52.5" y="710" width="240" height="140" as="geometry">
            <mxRectangle x="140" y="350" width="200" height="40" as="alternateBounds" />
          </mxGeometry>
        </mxCell>
        <mxCell id="E_WSCHdWVRtiDe6Vju4G-3" value="cst_id" style="text;strokeColor=none;fillColor=none;align=left;verticalAlign=middle;spacingLeft=4;spacingRight=4;overflow=hidden;points=[[0,0.5],[1,0.5]];portConstraint=eastwest;rotatable=0;whiteSpace=wrap;html=1;fontSize=26;fontColor=#FFFFFF;" parent="E_WSCHdWVRtiDe6Vju4G-2" vertex="1">
          <mxGeometry y="30" width="240" height="40" as="geometry" />
        </mxCell>
        <mxCell id="E_WSCHdWVRtiDe6Vju4G-19" value="cst_key" style="text;strokeColor=none;fillColor=none;align=left;verticalAlign=middle;spacingLeft=4;spacingRight=4;overflow=hidden;points=[[0,0.5],[1,0.5]];portConstraint=eastwest;rotatable=0;whiteSpace=wrap;html=1;fontSize=26;fontColor=#FFFFFF;" parent="E_WSCHdWVRtiDe6Vju4G-2" vertex="1">
          <mxGeometry y="70" width="240" height="40" as="geometry" />
        </mxCell>
        <mxCell id="flv46EGRh0IJJxOn0oUT-3" value="CUSTOMER" style="text;html=1;strokeColor=#82b366;fillColor=#d5e8d4;align=center;verticalAlign=middle;whiteSpace=wrap;overflow=hidden;fontSize=20;fontStyle=1;fontColor=#000000;" vertex="1" parent="E_WSCHdWVRtiDe6Vju4G-2">
          <mxGeometry y="110" width="240" height="30" as="geometry" />
        </mxCell>
        <mxCell id="E_WSCHdWVRtiDe6Vju4G-6" value="&lt;font style=&quot;font-size: 20px;&quot;&gt;Customer Information&lt;/font&gt;" style="text;html=1;align=center;verticalAlign=middle;whiteSpace=wrap;rounded=0;" parent="1" vertex="1">
          <mxGeometry x="67.5" y="680" width="210" height="30" as="geometry" />
        </mxCell>
        <mxCell id="E_WSCHdWVRtiDe6Vju4G-7" value="&lt;font style=&quot;color: rgb(0, 0, 0);&quot;&gt;crm_cust_info&lt;/font&gt;" style="swimlane;fontStyle=0;childLayout=stackLayout;horizontal=1;startSize=30;horizontalStack=0;resizeParent=1;resizeParentMax=0;resizeLast=0;collapsible=1;marginBottom=0;whiteSpace=wrap;html=1;rounded=1;fillColor=#dae8fc;strokeColor=#6c8ebf;fontSize=26;fontColor=#FFFFFF;" parent="1" vertex="1">
          <mxGeometry x="52.5" y="400" width="240" height="100" as="geometry">
            <mxRectangle x="140" y="350" width="200" height="40" as="alternateBounds" />
          </mxGeometry>
        </mxCell>
        <mxCell id="E_WSCHdWVRtiDe6Vju4G-8" value="prd_key" style="text;strokeColor=none;fillColor=none;align=left;verticalAlign=middle;spacingLeft=4;spacingRight=4;overflow=hidden;points=[[0,0.5],[1,0.5]];portConstraint=eastwest;rotatable=0;whiteSpace=wrap;html=1;fontSize=26;fontColor=#FFFFFF;" parent="E_WSCHdWVRtiDe6Vju4G-7" vertex="1">
          <mxGeometry y="30" width="240" height="40" as="geometry" />
        </mxCell>
        <mxCell id="flv46EGRh0IJJxOn0oUT-1" value="PRODUCT" style="text;html=1;strokeColor=#b85450;fillColor=#f8cecc;align=center;verticalAlign=middle;whiteSpace=wrap;overflow=hidden;fontSize=20;fontStyle=1;fontColor=#000000;" vertex="1" parent="E_WSCHdWVRtiDe6Vju4G-7">
          <mxGeometry y="70" width="240" height="30" as="geometry" />
        </mxCell>
        <mxCell id="E_WSCHdWVRtiDe6Vju4G-9" value="&lt;font style=&quot;font-size: 20px;&quot;&gt;Current &amp;amp; History Product Information&lt;/font&gt;" style="text;html=1;align=center;verticalAlign=middle;whiteSpace=wrap;rounded=0;" parent="1" vertex="1">
          <mxGeometry x="-10" y="370" width="365" height="30" as="geometry" />
        </mxCell>
        <mxCell id="E_WSCHdWVRtiDe6Vju4G-10" value="&lt;font style=&quot;color: rgb(0, 0, 0);&quot;&gt;crm_sales_details&lt;/font&gt;" style="swimlane;fontStyle=0;childLayout=stackLayout;horizontal=1;startSize=30;horizontalStack=0;resizeParent=1;resizeParentMax=0;resizeLast=0;collapsible=1;marginBottom=0;whiteSpace=wrap;html=1;rounded=1;fillColor=#dae8fc;strokeColor=#6c8ebf;fontSize=26;fontColor=#FFFFFF;" parent="1" vertex="1">
          <mxGeometry x="-410" y="510" width="240" height="140" as="geometry">
            <mxRectangle x="140" y="350" width="200" height="40" as="alternateBounds" />
          </mxGeometry>
        </mxCell>
        <mxCell id="E_WSCHdWVRtiDe6Vju4G-11" value="prd_key" style="text;strokeColor=none;fillColor=none;align=left;verticalAlign=middle;spacingLeft=4;spacingRight=4;overflow=hidden;points=[[0,0.5],[1,0.5]];portConstraint=eastwest;rotatable=0;whiteSpace=wrap;html=1;fontSize=26;fontColor=#FFFFFF;" parent="E_WSCHdWVRtiDe6Vju4G-10" vertex="1">
          <mxGeometry y="30" width="240" height="40" as="geometry" />
        </mxCell>
        <mxCell id="E_WSCHdWVRtiDe6Vju4G-13" value="cst_id" style="text;strokeColor=none;fillColor=none;align=left;verticalAlign=middle;spacingLeft=4;spacingRight=4;overflow=hidden;points=[[0,0.5],[1,0.5]];portConstraint=eastwest;rotatable=0;whiteSpace=wrap;html=1;fontSize=26;fontColor=#FFFFFF;" parent="E_WSCHdWVRtiDe6Vju4G-10" vertex="1">
          <mxGeometry y="70" width="240" height="40" as="geometry" />
        </mxCell>
        <mxCell id="flv46EGRh0IJJxOn0oUT-8" value="SALES" style="text;html=1;strokeColor=#9673a6;fillColor=#e1d5e7;align=center;verticalAlign=middle;whiteSpace=wrap;overflow=hidden;fontSize=20;fontStyle=1;fontColor=#000000;" vertex="1" parent="E_WSCHdWVRtiDe6Vju4G-10">
          <mxGeometry y="110" width="240" height="30" as="geometry" />
        </mxCell>
        <mxCell id="E_WSCHdWVRtiDe6Vju4G-12" value="&lt;font style=&quot;font-size: 20px;&quot;&gt;Transactional Records about Sales &amp;amp; Orders&lt;/font&gt;" style="text;html=1;align=center;verticalAlign=middle;whiteSpace=wrap;rounded=0;" parent="1" vertex="1">
          <mxGeometry x="-500" y="480" width="420" height="30" as="geometry" />
        </mxCell>
        <mxCell id="E_WSCHdWVRtiDe6Vju4G-14" style="edgeStyle=orthogonalEdgeStyle;rounded=0;orthogonalLoop=1;jettySize=auto;html=1;" parent="1" source="E_WSCHdWVRtiDe6Vju4G-13" target="E_WSCHdWVRtiDe6Vju4G-3" edge="1">
          <mxGeometry relative="1" as="geometry" />
        </mxCell>
        <mxCell id="E_WSCHdWVRtiDe6Vju4G-15" style="edgeStyle=orthogonalEdgeStyle;rounded=0;orthogonalLoop=1;jettySize=auto;html=1;entryX=0;entryY=0.5;entryDx=0;entryDy=0;" parent="1" source="E_WSCHdWVRtiDe6Vju4G-11" target="E_WSCHdWVRtiDe6Vju4G-8" edge="1">
          <mxGeometry relative="1" as="geometry" />
        </mxCell>
        <mxCell id="E_WSCHdWVRtiDe6Vju4G-16" value="&lt;font style=&quot;color: rgb(0, 0, 0);&quot;&gt;erp_cust_az12&lt;/font&gt;" style="swimlane;fontStyle=0;childLayout=stackLayout;horizontal=1;startSize=30;horizontalStack=0;resizeParent=1;resizeParentMax=0;resizeLast=0;collapsible=1;marginBottom=0;whiteSpace=wrap;html=1;rounded=1;fillColor=#fff2cc;strokeColor=#d6b656;fontSize=26;" parent="1" vertex="1">
          <mxGeometry x="562.5" y="570" width="240" height="100" as="geometry">
            <mxRectangle x="140" y="350" width="200" height="40" as="alternateBounds" />
          </mxGeometry>
        </mxCell>
        <mxCell id="E_WSCHdWVRtiDe6Vju4G-17" value="cid" style="text;strokeColor=none;fillColor=none;align=left;verticalAlign=middle;spacingLeft=4;spacingRight=4;overflow=hidden;points=[[0,0.5],[1,0.5]];portConstraint=eastwest;rotatable=0;whiteSpace=wrap;html=1;fontSize=26;fontColor=#FFFFFF;" parent="E_WSCHdWVRtiDe6Vju4G-16" vertex="1">
          <mxGeometry y="30" width="240" height="40" as="geometry" />
        </mxCell>
        <mxCell id="flv46EGRh0IJJxOn0oUT-4" value="CUSTOMER" style="text;html=1;strokeColor=#82b366;fillColor=#d5e8d4;align=center;verticalAlign=middle;whiteSpace=wrap;overflow=hidden;fontSize=20;fontStyle=1;fontColor=#000000;" vertex="1" parent="E_WSCHdWVRtiDe6Vju4G-16">
          <mxGeometry y="70" width="240" height="30" as="geometry" />
        </mxCell>
        <mxCell id="E_WSCHdWVRtiDe6Vju4G-18" value="&lt;font style=&quot;font-size: 20px;&quot;&gt;Extra Customer Information (Birthdate)&lt;/font&gt;" style="text;html=1;align=center;verticalAlign=middle;whiteSpace=wrap;rounded=0;" parent="1" vertex="1">
          <mxGeometry x="500" y="540" width="365" height="30" as="geometry" />
        </mxCell>
        <mxCell id="E_WSCHdWVRtiDe6Vju4G-22" value="&lt;font style=&quot;color: rgb(0, 0, 0);&quot;&gt;erp_loc_a101&lt;/font&gt;" style="swimlane;fontStyle=0;childLayout=stackLayout;horizontal=1;startSize=30;horizontalStack=0;resizeParent=1;resizeParentMax=0;resizeLast=0;collapsible=1;marginBottom=0;whiteSpace=wrap;html=1;rounded=1;fillColor=#fff2cc;strokeColor=#d6b656;fontSize=26;" parent="1" vertex="1">
          <mxGeometry x="562.5" y="750" width="240" height="100" as="geometry">
            <mxRectangle x="140" y="350" width="200" height="40" as="alternateBounds" />
          </mxGeometry>
        </mxCell>
        <mxCell id="E_WSCHdWVRtiDe6Vju4G-23" value="cid" style="text;strokeColor=none;fillColor=none;align=left;verticalAlign=middle;spacingLeft=4;spacingRight=4;overflow=hidden;points=[[0,0.5],[1,0.5]];portConstraint=eastwest;rotatable=0;whiteSpace=wrap;html=1;fontSize=26;fontColor=#FFFFFF;" parent="E_WSCHdWVRtiDe6Vju4G-22" vertex="1">
          <mxGeometry y="30" width="240" height="40" as="geometry" />
        </mxCell>
        <mxCell id="flv46EGRh0IJJxOn0oUT-7" value="CUSTOMER" style="text;html=1;strokeColor=#82b366;fillColor=#d5e8d4;align=center;verticalAlign=middle;whiteSpace=wrap;overflow=hidden;fontSize=20;fontStyle=1;fontColor=#000000;" vertex="1" parent="E_WSCHdWVRtiDe6Vju4G-22">
          <mxGeometry y="70" width="240" height="30" as="geometry" />
        </mxCell>
        <mxCell id="E_WSCHdWVRtiDe6Vju4G-25" value="&lt;font style=&quot;font-size: 20px;&quot;&gt;Location of Customers (Country)&lt;/font&gt;" style="text;html=1;align=center;verticalAlign=middle;whiteSpace=wrap;rounded=0;" parent="1" vertex="1">
          <mxGeometry x="531.25" y="720" width="302.5" height="30" as="geometry" />
        </mxCell>
        <mxCell id="E_WSCHdWVRtiDe6Vju4G-26" value="&lt;font style=&quot;color: rgb(0, 0, 0);&quot;&gt;erp_px_cat_g1v2&lt;/font&gt;" style="swimlane;fontStyle=0;childLayout=stackLayout;horizontal=1;startSize=30;horizontalStack=0;resizeParent=1;resizeParentMax=0;resizeLast=0;collapsible=1;marginBottom=0;whiteSpace=wrap;html=1;rounded=1;fillColor=#fff2cc;strokeColor=#d6b656;fontSize=26;" parent="1" vertex="1">
          <mxGeometry x="562.5" y="400" width="240" height="100" as="geometry">
            <mxRectangle x="140" y="350" width="200" height="40" as="alternateBounds" />
          </mxGeometry>
        </mxCell>
        <mxCell id="E_WSCHdWVRtiDe6Vju4G-27" value="id" style="text;strokeColor=none;fillColor=none;align=left;verticalAlign=middle;spacingLeft=4;spacingRight=4;overflow=hidden;points=[[0,0.5],[1,0.5]];portConstraint=eastwest;rotatable=0;whiteSpace=wrap;html=1;fontSize=26;fontColor=#FFFFFF;" parent="E_WSCHdWVRtiDe6Vju4G-26" vertex="1">
          <mxGeometry y="30" width="240" height="40" as="geometry" />
        </mxCell>
        <mxCell id="flv46EGRh0IJJxOn0oUT-2" value="PRODUCT" style="text;html=1;strokeColor=#b85450;fillColor=#f8cecc;align=center;verticalAlign=middle;whiteSpace=wrap;overflow=hidden;fontSize=20;fontStyle=1;fontColor=#000000;" vertex="1" parent="E_WSCHdWVRtiDe6Vju4G-26">
          <mxGeometry y="70" width="240" height="30" as="geometry" />
        </mxCell>
        <mxCell id="E_WSCHdWVRtiDe6Vju4G-28" value="&lt;font style=&quot;font-size: 20px;&quot;&gt;Product Categories&lt;/font&gt;" style="text;html=1;align=center;verticalAlign=middle;whiteSpace=wrap;rounded=0;" parent="1" vertex="1">
          <mxGeometry x="582.5" y="370" width="200" height="30" as="geometry" />
        </mxCell>
        <mxCell id="E_WSCHdWVRtiDe6Vju4G-29" style="edgeStyle=orthogonalEdgeStyle;rounded=0;orthogonalLoop=1;jettySize=auto;html=1;exitX=0;exitY=0.5;exitDx=0;exitDy=0;entryX=1;entryY=0.5;entryDx=0;entryDy=0;" parent="1" source="E_WSCHdWVRtiDe6Vju4G-27" target="E_WSCHdWVRtiDe6Vju4G-8" edge="1">
          <mxGeometry relative="1" as="geometry" />
        </mxCell>
        <mxCell id="E_WSCHdWVRtiDe6Vju4G-30" value="" style="rounded=1;whiteSpace=wrap;html=1;fillColor=none;dashed=1;" parent="1" vertex="1">
          <mxGeometry x="-530" y="285" width="930" height="670" as="geometry" />
        </mxCell>
        <mxCell id="E_WSCHdWVRtiDe6Vju4G-31" value="&lt;font style=&quot;font-size: 35px; color: rgb(0, 0, 0);&quot;&gt;CRM&lt;/font&gt;" style="rounded=1;whiteSpace=wrap;html=1;fillColor=#dae8fc;strokeColor=#6c8ebf;" parent="1" vertex="1">
          <mxGeometry x="-180" y="240" width="230" height="60" as="geometry" />
        </mxCell>
        <mxCell id="E_WSCHdWVRtiDe6Vju4G-32" value="" style="rounded=1;whiteSpace=wrap;html=1;fillColor=none;dashed=1;" parent="1" vertex="1">
          <mxGeometry x="467.5" y="280" width="430" height="670" as="geometry" />
        </mxCell>
        <mxCell id="E_WSCHdWVRtiDe6Vju4G-33" value="&lt;font color=&quot;#000000&quot;&gt;&lt;span style=&quot;font-size: 35px;&quot;&gt;ERP&lt;/span&gt;&lt;/font&gt;" style="rounded=1;whiteSpace=wrap;html=1;fillColor=#fff2cc;strokeColor=#d6b656;" parent="1" vertex="1">
          <mxGeometry x="565" y="240" width="235" height="60" as="geometry" />
        </mxCell>
        <mxCell id="E_WSCHdWVRtiDe6Vju4G-34" style="edgeStyle=orthogonalEdgeStyle;rounded=0;orthogonalLoop=1;jettySize=auto;html=1;entryX=1;entryY=0.5;entryDx=0;entryDy=0;exitX=0.007;exitY=0.853;exitDx=0;exitDy=0;exitPerimeter=0;" parent="1" source="E_WSCHdWVRtiDe6Vju4G-17" target="E_WSCHdWVRtiDe6Vju4G-19" edge="1">
          <mxGeometry relative="1" as="geometry">
            <Array as="points">
              <mxPoint x="500" y="634" />
            </Array>
          </mxGeometry>
        </mxCell>
        <mxCell id="E_WSCHdWVRtiDe6Vju4G-35" style="edgeStyle=orthogonalEdgeStyle;rounded=0;orthogonalLoop=1;jettySize=auto;html=1;entryX=1;entryY=0.5;entryDx=0;entryDy=0;" parent="1" source="E_WSCHdWVRtiDe6Vju4G-23" target="E_WSCHdWVRtiDe6Vju4G-19" edge="1">
          <mxGeometry relative="1" as="geometry" />
        </mxCell>
      </root>
    </mxGraphModel>
  </diagram>
</mxfile>
